<svg width="98" height="100" viewBox="0 0 98 100" fill="none" xmlns="http://www.w3.org/2000/svg">
<g clip-path="url(#clip0_43_2059)">
<path d="M81.9774 83.9844H15.7238C15.1132 83.9844 14.5789 83.6719 14.3499 83.125C14.1209 82.5781 14.1209 81.9531 14.5025 81.4844C20.6089 73.3594 23.9673 63.2812 23.9673 53.0469V42.9687C23.9673 28.9062 35.1114 17.5 48.8506 17.5C62.5898 17.5 73.7339 28.9062 73.7339 42.9687V53.0469C73.7339 63.2812 77.0923 73.3594 83.1987 81.4844C83.5803 81.9531 83.5803 82.5781 83.3513 83.125C83.046 83.6719 82.588 83.9844 81.9774 83.9844ZM18.7006 80.8594H79.0006C73.5812 72.6562 70.6807 62.8906 70.6807 53.0469V42.9687C70.6807 30.625 60.9106 20.625 48.8506 20.625C36.7906 20.625 27.0205 30.625 27.0205 42.9687V53.0469C27.0205 62.9688 24.12 72.7344 18.7006 80.8594Z" fill="#303C42"/>
<path d="M48.8506 92.8906C43.2023 92.8906 38.6226 88.2031 38.6226 82.4219C38.6226 81.5625 39.3095 80.8594 40.1491 80.8594H57.5522C58.3918 80.8594 59.0787 81.5625 59.0787 82.4219C59.0787 88.2031 54.499 92.8906 48.8506 92.8906ZM41.8284 83.9844C42.5153 87.2656 45.4158 89.7656 48.8506 89.7656C52.2855 89.7656 55.1096 87.2656 55.8729 83.9844H41.8284Z" fill="#303C42"/>
<path d="M40.2255 22.3438C39.6149 22.3438 39.0043 21.9531 38.7753 21.25C38.47 20.1562 38.241 19.0625 38.241 17.9688C38.241 12.0312 42.9734 7.10938 48.8507 7.10938C54.6517 7.10938 59.4604 11.9531 59.4604 17.9688C59.4604 19.0625 59.3078 20.2344 58.9261 21.25C58.6971 22.1094 57.7812 22.5 57.0179 22.2656C56.1783 22.0312 55.7966 21.0938 56.0256 20.3125C56.2546 19.5312 56.4073 18.75 56.4073 17.9688C56.4073 13.75 53.0488 10.2344 48.8507 10.2344C44.7289 10.2344 41.2941 13.6719 41.2941 17.9688C41.2941 18.75 41.4468 19.5312 41.6758 20.3125C41.9048 21.1719 41.5231 22.0312 40.6835 22.2656C40.5308 22.2656 40.3782 22.3438 40.2255 22.3438Z" fill="#303C42"/>
<path d="M17.0214 65C16.6398 65 16.2581 64.8437 15.9528 64.5312C8.09092 56.4844 8.09092 43.4375 15.9528 35.4688C16.5634 34.8438 17.4794 34.8438 18.09 35.4688C18.7007 36.0938 18.7007 37.0312 18.09 37.6562C11.4494 44.4531 11.4494 55.5469 18.09 62.3438C18.7007 62.9688 18.7007 63.9062 18.09 64.5312C17.7847 64.8437 17.4031 65 17.0214 65Z" fill="#303C42"/>
<path d="M10.6861 71.1719C10.3045 71.1719 9.92282 71.0156 9.6175 70.7031C-1.98451 58.8281 -2.7478 40.2344 7.93827 29.2188C8.5489 28.5938 9.46485 28.5938 10.0755 29.2188C10.6861 29.8438 10.6861 30.7812 10.0755 31.4062C0.61068 41.1719 1.37397 57.8125 11.831 68.5156C12.4417 69.1406 12.4417 70.0781 11.831 70.7031C11.5257 71.0937 11.1441 71.1719 10.6861 71.1719Z" fill="#303C42"/>
<path d="M80.6799 65C80.2983 65 79.9166 64.8437 79.6113 64.5312C79.0007 63.9062 79.0007 62.9688 79.6113 62.3438C86.2519 55.5469 86.2519 44.4531 79.6113 37.6562C79.0007 37.0312 79.0007 36.0938 79.6113 35.4688C80.2219 34.8438 81.1379 34.8438 81.7485 35.4688C89.6104 43.5156 89.6104 56.5625 81.7485 64.5312C81.4432 64.8437 81.0615 65 80.6799 65Z" fill="#303C42"/>
<path d="M86.9387 71.1719C86.557 71.1719 86.1754 71.0156 85.8701 70.7031C85.2595 70.0781 85.2595 69.1406 85.8701 68.5156C90.9841 63.2812 93.8846 56.5625 94.1899 49.5312C94.4953 42.5781 92.1291 36.0937 87.5493 31.4062C86.9387 30.7812 86.9387 29.8438 87.5493 29.2188C88.16 28.5938 89.0759 28.5938 89.6865 29.2188C94.8769 34.5312 97.5484 41.7969 97.2431 49.6875C96.9378 57.5 93.6556 65 88.0073 70.7031C87.7783 71.0937 87.3203 71.1719 86.9387 71.1719Z" fill="#303C42"/>
</g>
<defs>
<clipPath id="clip0_43_2059">
<rect width="97.7011" height="100" fill="white"/>
</clipPath>
</defs>
</svg>
