<svg width="50" height="50" viewBox="0 0 50 50" fill="none" xmlns="http://www.w3.org/2000/svg">
<path d="M10.5618 18.8981H15.781V31.8875H10.5618V18.8981ZM22.3906 14.6731H27.6098V31.8875H22.3906V14.6731ZM34.2195 9.92023H39.4387V31.8875H34.2195V9.92023Z" stroke="black" stroke-width="2" stroke-miterlimit="10" stroke-linecap="round" stroke-linejoin="round"/>
<path d="M38.1491 48.0769L29.5616 31.8904M20.4386 31.8904L11.8511 48.0769M25.0001 31.8875V48.0769M42.9809 31.8875H7.01934C6.69563 31.8876 6.37506 31.824 6.07595 31.7002C5.77684 31.5764 5.50505 31.3949 5.27611 31.166C5.04716 30.9372 4.86555 30.6655 4.74164 30.3664C4.61773 30.0674 4.55396 29.7468 4.55396 29.4231V4.38752C4.55396 3.73391 4.8136 3.10708 5.27577 2.64491C5.73794 2.18274 6.36477 1.9231 7.01838 1.9231H42.9818C43.6353 1.92335 44.2619 2.18311 44.7238 2.64525C45.1858 3.10739 45.4453 3.73408 45.4453 4.38752V29.4231C45.4453 30.0765 45.1858 30.7032 44.7238 31.1654C44.2619 31.6275 43.6343 31.8873 42.9809 31.8875Z" stroke="black" stroke-width="2" stroke-miterlimit="10" stroke-linecap="round" stroke-linejoin="round"/>
<path d="M10.5618 18.8981H15.781V31.8875H10.5618V18.8981ZM22.3906 14.6731H27.6098V31.8875H22.3906V14.6731ZM34.2195 9.92023H39.4387V31.8875H34.2195V9.92023Z" stroke="black" stroke-width="2" stroke-miterlimit="10" stroke-linecap="round" stroke-linejoin="round"/>
<path d="M38.1491 48.0769L29.5616 31.8904M20.4386 31.8904L11.8511 48.0769M25.0001 31.8875V48.0769M42.9809 31.8875H7.01934C6.69563 31.8876 6.37506 31.824 6.07595 31.7002C5.77684 31.5764 5.50505 31.3949 5.27611 31.166C5.04716 30.9372 4.86555 30.6655 4.74164 30.3664C4.61773 30.0674 4.55396 29.7468 4.55396 29.4231V4.38752C4.55396 3.73391 4.8136 3.10708 5.27577 2.64491C5.73794 2.18274 6.36477 1.9231 7.01838 1.9231H42.9818C43.6353 1.92335 44.2619 2.18311 44.7238 2.64525C45.1858 3.10739 45.4453 3.73408 45.4453 4.38752V29.4231C45.4453 30.0765 45.1858 30.7032 44.7238 31.1654C44.2619 31.6275 43.6343 31.8873 42.9809 31.8875Z" stroke="black" stroke-width="2" stroke-miterlimit="10" stroke-linecap="round" stroke-linejoin="round"/>
</svg>
