<svg width="54" height="50" viewBox="0 0 54 50" fill="none" xmlns="http://www.w3.org/2000/svg">
<path d="M14.4945 20.7583C14.0867 24.1167 15.2481 27.4417 17.686 29.8917C19.5832 31.8 20.6204 34.2333 20.6204 36.8167C20.6204 37.7 21.241 38.4417 22.0832 38.7V40.65H20.9839C20.4963 40.65 20.0974 41.025 20.0974 41.4833C20.0974 41.9417 20.4963 42.3167 20.9839 42.3167H22.0832V43.575C22.0832 44.8167 23.1559 45.825 24.4768 45.825H28.6967C30.0176 45.825 31.0903 44.8167 31.0903 43.575V42.3167H32.1896C32.6772 42.3167 33.0761 41.9417 33.0761 41.4833C33.0761 41.025 32.6772 40.65 32.1896 40.65H31.0903V38.7C31.9413 38.4333 32.553 37.6833 32.553 36.75C32.553 34.2667 33.6257 31.8 35.5672 29.8083C37.624 27.6917 38.7587 24.95 38.7587 22.0917C38.7587 18.8417 37.2782 15.7333 34.6984 13.5583C32.1186 11.3917 28.6523 10.3583 25.186 10.7167C19.6364 11.3 15.1328 15.525 14.4945 20.7583ZM29.3261 43.5833C29.3261 43.9083 29.0424 44.1667 28.7055 44.1667H24.4857C24.1399 44.1667 23.8651 43.9083 23.8651 43.5833V38.8083H29.335V43.5833H29.3261ZM26.6133 12.3167C29.1842 12.3167 31.6045 13.1833 33.5371 14.8083C35.7445 16.6667 37.0034 19.3167 37.0034 22.1C37.0034 24.55 36.0371 26.8917 34.2729 28.6917C32.03 30.9917 30.7977 33.8583 30.7977 36.8167C30.7977 37 30.6381 37.1417 30.452 37.1417H30.2215H22.9786H22.7481C22.553 37.1417 22.4023 36.9917 22.4023 36.75C22.4023 33.8083 21.1878 30.9667 18.9892 28.75C16.9147 26.6583 15.9218 23.8083 16.2676 20.9417C16.8084 16.475 20.6559 12.875 25.4076 12.375C25.8066 12.3333 26.2055 12.3167 26.6133 12.3167ZM27.4821 8.32499V4.99999C27.4821 4.54166 27.0832 4.16666 26.5956 4.16666C26.108 4.16666 25.7091 4.54166 25.7091 4.99999V8.32499C25.7091 8.78332 26.108 9.15832 26.5956 9.15832C27.0832 9.15832 27.4821 8.78332 27.4821 8.32499ZM14.3616 9.41666C14.0158 9.09166 13.4573 9.09166 13.1116 9.41666C12.7658 9.74166 12.7658 10.2667 13.1116 10.5917L15.6116 12.9417C15.7889 13.1083 16.0105 13.1833 16.241 13.1833C16.4715 13.1833 16.6931 13.1 16.8704 12.9417C17.2162 12.6167 17.2162 12.0917 16.8704 11.7667L14.3616 9.41666ZM11.9413 22.9333C12.4289 22.9333 12.8279 22.5583 12.8279 22.1C12.8279 21.6417 12.4289 21.2667 11.9413 21.2667H8.4041C7.91651 21.2667 7.51758 21.6417 7.51758 22.1C7.51758 22.5583 7.91651 22.9333 8.4041 22.9333H11.9413Z" fill="black"/>
<path d="M13.1117 34.775C13.289 34.9417 13.5107 35.0167 13.7412 35.0167C13.9717 35.0167 14.1933 34.9333 14.3706 34.775L16.8706 32.425C17.2163 32.1 17.2163 31.575 16.8706 31.25C16.5248 30.925 15.9663 30.925 15.6206 31.25L13.1206 33.6C12.766 33.925 12.766 34.45 13.1117 34.775ZM40.0798 9.41666C39.7341 9.09166 39.1756 9.09166 38.8298 9.41666L36.3298 11.7667C35.9841 12.0917 35.9841 12.6167 36.3298 12.9417C36.5071 13.1083 36.7287 13.1833 36.9592 13.1833C37.1897 13.1833 37.4114 13.1 37.5887 12.9417L40.0887 10.5917C40.4256 10.275 40.4256 9.74166 40.0798 9.41666ZM44.7873 22.9333C45.2748 22.9333 45.6738 22.5583 45.6738 22.1C45.6738 21.6417 45.2748 21.2667 44.7873 21.2667H41.25C40.7624 21.2667 40.3635 21.6417 40.3635 22.1C40.3635 22.5583 40.7624 22.9333 41.25 22.9333H44.7873ZM37.5798 31.25C37.2341 30.925 36.6756 30.925 36.3298 31.25C35.9841 31.575 35.9841 32.1 36.3298 32.425L38.8298 34.775C39.0071 34.9417 39.2287 35.0167 39.4592 35.0167C39.6897 35.0167 39.9114 34.9333 40.0887 34.775C40.4344 34.45 40.4344 33.925 40.0887 33.6L37.5798 31.25Z" fill="black"/>
</svg>
