<svg xmlns="http://www.w3.org/2000/svg" enable-background="new 0 0 48 48" viewBox="0 0 48 48" id="chatting">
  <rect width="21.02" height="2" x="9.65" y="7.76"></rect>
  <rect width="21.02" height="2" x="9.65" y="13.79"></rect>
  <rect width="21.02" height="2" x="9.65" y="19.83"></rect>
  <path d="M0.5,23.57c0,2.88,2.14,5.27,4.91,5.67v7.13l7.07-7.07h2.81v7.59c0,2.66,2.17,4.83,4.83,4.83h16.25l5.99,5.99v-5.99h0.31c2.66,0,4.83-2.17,4.83-4.83v-13.2c0-2.66-2.17-4.83-4.83-4.83h-2.85V6.02c0-3.16-2.57-5.73-5.73-5.73H6.23c-3.16,0-5.73,2.57-5.73,5.73V23.57z M39.83,23.57v-2.71h2.85c1.56,0,2.83,1.27,2.83,2.83v13.2c0,1.56-1.27,2.83-2.83,2.83h-2.31v3.17l-3.17-3.17H20.12c-1.56,0-2.83-1.27-2.83-2.83v-7.59H34.1C37.26,29.29,39.83,26.73,39.83,23.57z M2.5,6.02c0-2.06,1.67-3.73,3.73-3.73H34.1c2.06,0,3.73,1.67,3.73,3.73v17.54c0,2.06-1.67,3.73-3.73,3.73H11.65l-4.24,4.24v-4.24H6.23c-2.06,0-3.73-1.67-3.73-3.73V6.02z"></path>
</svg>
