<svg width="53" height="50" viewBox="0 0 53 50" fill="none" xmlns="http://www.w3.org/2000/svg">
<path d="M46.622 7.78726H44.9524V5.75817C44.9524 4.12999 43.5662 2.80453 41.8623 2.80453H5.70723C4.00331 2.80453 2.61621 4.12999 2.61621 5.75817V39.2591C2.61621 40.8873 4.00331 42.2127 5.70723 42.2127H7.37308V44.2354C7.37308 45.8673 8.76209 47.1945 10.4698 47.1945H46.622C48.324 47.1945 49.7092 45.8673 49.7092 44.2354V10.7373C49.7092 9.10999 48.324 7.78726 46.622 7.78726ZM4.04327 39.26V5.75817C4.04327 4.88181 4.78915 4.16817 5.70723 4.16817H41.8623C42.7794 4.16817 43.5253 4.8809 43.5253 5.75817C43.5253 15.5873 43.5253 24.3336 43.5253 39.2591C43.5253 40.1354 42.7794 40.8491 41.8623 40.8491C29.8179 40.8491 17.7916 40.8491 5.70723 40.8491C4.78915 40.8491 4.04327 40.1364 4.04327 39.26ZM48.2822 44.2354C48.2822 45.1154 47.5372 45.8309 46.622 45.8309H10.4698C9.54887 45.8309 8.80014 45.1145 8.80014 44.2354V42.2127H41.8613H41.8642C43.5662 42.2127 44.9514 40.8891 44.9514 39.2627V39.26V9.1509H46.622C47.5372 9.1509 48.2822 9.86272 48.2822 10.7373V44.2354Z" fill="#020202"/>
<path d="M7.82877 15.7664H15.6167C16.2532 15.7664 16.7717 15.2709 16.7717 14.6618V7.78637C16.7717 7.17728 16.2532 6.68182 15.6167 6.68182H7.82877C7.19135 6.68182 6.67285 7.17728 6.67285 7.78637V14.6618C6.6738 15.2709 7.1923 15.7664 7.82877 15.7664ZM8.10086 8.04637H15.3456V14.4027H8.10086V8.04637ZM21.4296 11.7273H38.3508C38.7446 11.7273 39.0643 11.4218 39.0643 11.0455C39.0643 10.6691 38.7446 10.3636 38.3508 10.3636H21.4296C21.0357 10.3636 20.7161 10.6691 20.7161 11.0455C20.7161 11.4218 21.0357 11.7273 21.4296 11.7273ZM7.82877 27.0509H15.6167C16.2532 27.0509 16.7717 26.5555 16.7717 25.9473V19.0718C16.7717 18.4627 16.2532 17.9673 15.6167 17.9673H7.82877C7.19135 17.9673 6.67285 18.4627 6.67285 19.0718V25.9473C6.6738 26.5555 7.1923 27.0509 7.82877 27.0509ZM8.10086 19.3309H15.3456V25.6873H8.10086V19.3309ZM21.4296 23.0118H38.3508C38.7446 23.0118 39.0643 22.7064 39.0643 22.33C39.0643 21.9536 38.7446 21.6482 38.3508 21.6482H21.4296C21.0357 21.6482 20.7161 21.9536 20.7161 22.33C20.7161 22.7064 21.0357 23.0118 21.4296 23.0118ZM16.7726 37.2318V30.3564C16.7726 29.7482 16.2541 29.2527 15.6177 29.2527H7.82877C7.19135 29.2527 6.67285 29.7482 6.67285 30.3564V37.2318C6.67285 37.8409 7.19135 38.3364 7.82877 38.3364H15.6167C16.2541 38.3355 16.7726 37.8409 16.7726 37.2318ZM15.3456 36.9718H8.10086V30.6155H15.3456V36.9718ZM21.4296 34.2973H38.3508C38.7446 34.2973 39.0643 33.9918 39.0643 33.6155C39.0643 33.2391 38.7446 32.9336 38.3508 32.9336H21.4296C21.0357 32.9336 20.7161 33.2391 20.7161 33.6155C20.7161 33.9918 21.0357 34.2973 21.4296 34.2973Z" fill="#020202"/>
</svg>
