<svg width="27" height="32" viewBox="0 0 27 32" fill="none" xmlns="http://www.w3.org/2000/svg">
<path d="M25.712 9.294L16.712 0.294C16.5368 0.128111 16.3088 0.0290146 16.068 0.0140001C16.044 0.0120001 16.024 0 16 0H3C1.346 0 0 1.346 0 3V29C0 30.654 1.346 32 3 32H23C24.654 32 26 30.654 26 29V22C26 10.427 26.246 9.828 25.712 9.294ZM17.005 3.415L22.591 9.001H18.005C17.453 9.001 17.005 8.552 17.005 8.001V3.415ZM3 2H15.005V8.001C15.005 9.655 16.351 11.001 18.005 11.001H24V19.586L20.707 16.293C20.6142 16.2001 20.504 16.1263 20.3827 16.076C20.2614 16.0257 20.1313 15.9998 20 15.9998C19.8687 15.9998 19.7386 16.0257 19.6173 16.076C19.496 16.1263 19.3858 16.2001 19.293 16.293L14 21.586L10.707 18.293C10.6142 18.2001 10.504 18.1263 10.3827 18.076C10.2614 18.0257 10.1313 17.9998 10 17.9998C9.86867 17.9998 9.73862 18.0257 9.61731 18.076C9.49599 18.1263 9.38579 18.2001 9.293 18.293L2 25.586V3C2 2.449 2.448 2 3 2ZM24 29C24.0013 29.1317 23.9764 29.2623 23.9266 29.3843C23.8768 29.5062 23.8032 29.617 23.7101 29.7101C23.617 29.8032 23.5062 29.8768 23.3843 29.9266C23.2623 29.9764 23.1317 30.0013 23 30H3C2.448 30 2 29.551 2 29V28.414L10 20.414L13.293 23.707C13.3858 23.7999 13.496 23.8737 13.6173 23.924C13.7386 23.9743 13.8687 24.0002 14 24.0002C14.1313 24.0002 14.2614 23.9743 14.3827 23.924C14.504 23.8737 14.6142 23.7999 14.707 23.707L20 18.414L24 22.414V29Z" fill="#9D9D9C"/>
<path d="M11.0051 16.0151C12.6591 16.0151 14.0051 14.6691 14.0051 13.0151C14.0051 11.3611 12.6591 10.0151 11.0051 10.0151C9.35113 10.0151 8.00513 11.3611 8.00513 13.0151C8.00513 14.6691 9.35013 16.0151 11.0051 16.0151ZM11.0051 12.0151C11.2626 12.0267 11.5057 12.137 11.6839 12.3233C11.862 12.5096 11.9614 12.7574 11.9614 13.0151C11.9614 13.2729 11.862 13.5207 11.6839 13.707C11.5057 13.8932 11.2626 14.0036 11.0051 14.0151C10.7476 14.0036 10.5045 13.8932 10.3264 13.707C10.1483 13.5207 10.0489 13.2729 10.0489 13.0151C10.0489 12.7574 10.1483 12.5096 10.3264 12.3233C10.5045 12.137 10.7476 12.0267 11.0051 12.0151Z" fill="#9D9D9C"/>
</svg>
