<svg width="35" height="33" viewBox="0 0 35 33" fill="none" xmlns="http://www.w3.org/2000/svg">
<path d="M27.7084 5.5H7.29175C4.87656 5.50252 2.91942 7.34782 2.91675 9.625V23.375C2.91942 25.6522 4.87656 27.4975 7.29175 27.5H27.7084C30.1236 27.4975 32.0807 25.6522 32.0834 23.375V9.625C32.0807 7.34782 30.1236 5.50252 27.7084 5.5ZM7.29175 6.875H27.7084C28.2481 6.87567 28.747 7.02371 29.1805 7.26491L19.0467 16.8196C18.1914 17.6226 16.8087 17.6226 15.9534 16.8196L5.81962 7.26491C6.25309 7.02371 6.75208 6.87567 7.29175 6.875ZM30.6251 23.375C30.623 24.893 29.3184 26.1231 27.7084 26.125H7.29175C5.68174 26.1231 4.37713 24.893 4.37508 23.375V9.625C4.37579 9.11617 4.53281 8.64578 4.78862 8.23708L14.9224 17.7917C15.6054 18.437 16.5332 18.799 17.5001 18.7975C18.467 18.7989 19.3946 18.437 20.0777 17.7917L30.2115 8.23699C30.4674 8.6457 30.6244 9.11617 30.6251 9.625V23.375Z" fill="black"/>
</svg>
