<svg width="33" height="30" viewBox="0 0 33 30" fill="none" xmlns="http://www.w3.org/2000/svg">
<path d="M1.54688 22.2201H8.6466L20.9964 26.5503C21.0563 26.5713 21.1192 26.5816 21.1819 26.5816C21.2846 26.5816 21.3866 26.5537 21.4737 26.4995C21.6137 26.412 21.6975 26.2674 21.6975 26.1129V18.9589C23.8745 18.7258 25.5698 17.0407 25.5698 15C25.5698 12.9593 23.8745 11.2742 21.6975 11.0411V3.88709C21.6975 3.73259 21.6137 3.58794 21.4737 3.50051C21.3335 3.4133 21.1542 3.39408 20.9964 3.44969L8.6466 7.77991H1.54688C1.26212 7.77991 1.03125 7.9898 1.03125 8.24866V21.7513C1.03125 22.0102 1.26212 22.2201 1.54688 22.2201ZM24.5385 15C24.5385 16.5227 23.3038 17.7849 21.6975 18.0116V11.9884C23.3038 12.2151 24.5385 13.4773 24.5385 15ZM20.6663 25.4297L9.25834 21.4297V8.57024L20.6663 4.5703V25.4297ZM2.0625 8.71741H8.22709V21.2826H2.0625V8.71741Z" fill="black"/>
<path d="M29.8171 7.25647C29.2156 6.24275 27.8183 5.86235 26.7014 6.40915C25.5861 6.9564 25.1679 8.2267 25.7699 9.24087C26.5058 10.4812 27.381 12.4956 27.3701 15.0478C27.3593 17.5571 26.4937 19.5387 25.7696 20.7591C25.4783 21.2503 25.4146 21.8156 25.5909 22.3505C25.7671 22.8854 26.1616 23.326 26.7019 23.5908C27.0368 23.7552 27.4134 23.8419 27.7916 23.8419C28.6391 23.8419 29.4153 23.421 29.8171 22.7435C30.7904 21.1029 31.9536 18.4389 31.9685 15.0641C31.9836 11.6336 30.8068 8.92479 29.8171 7.25647ZM28.9092 22.2986C28.5892 22.8383 27.7923 23.0605 27.1916 22.7657C26.8935 22.6197 26.676 22.3766 26.5788 22.0816C26.4816 21.7866 26.5166 21.4751 26.6775 21.2041C27.4575 19.8894 28.3895 17.7548 28.4014 15.0515C28.4132 12.3019 27.4703 10.1319 26.6775 8.79593C26.3454 8.23654 26.576 7.53593 27.1909 7.23426C27.382 7.14065 27.5879 7.09625 27.7913 7.09625C28.243 7.09625 28.6806 7.31575 28.9092 7.70141C29.8423 9.27383 30.9513 11.827 30.9372 15.0604C30.9234 18.2412 29.8267 20.7523 28.9092 22.2986Z" fill="black"/>
</svg>
