<svg width="53" height="50" viewBox="0 0 53 50" fill="none" xmlns="http://www.w3.org/2000/svg">
<g clip-path="url(#clip0_30_29)">
<path d="M48.3194 4.6875H41.6969V1.79688C41.6969 1.32812 41.3699 1.01562 40.8794 1.01562C40.3888 1.01562 40.0618 1.32812 40.0618 1.79688V4.6875H26.9804V1.79688C26.9804 1.32812 26.6533 1.01562 26.1628 1.01562C25.6722 1.01562 25.3452 1.32812 25.3452 1.79688V4.6875H12.2638V1.79688C12.2638 1.32812 11.9368 1.01562 11.4462 1.01562C10.9557 1.01562 10.6286 1.32812 10.6286 1.79688V4.6875H4.00618C1.79869 4.6875 0 6.40625 0 8.4375V45.1562C0 47.2656 1.79869 48.9844 4.00618 48.9844H48.4012C50.6087 48.9844 52.4073 47.2656 52.4073 45.1562V8.4375C52.3256 6.40625 50.5269 4.6875 48.3194 4.6875ZM40.8794 11.7188C41.3699 11.7188 41.6969 11.4062 41.6969 10.9375V10.4688C42.1057 10.7031 42.4328 11.1719 42.4328 11.7188C42.4328 12.5 41.7787 13.2031 40.8794 13.2031C40.0618 13.2031 39.3259 12.5781 39.3259 11.7188C39.3259 11.1719 39.5712 10.7812 40.0618 10.4688V10.9375C40.0618 11.4062 40.3888 11.7188 40.8794 11.7188ZM26.1628 11.7188C26.6533 11.7188 26.9804 11.4062 26.9804 10.9375V10.4688C27.3892 10.7031 27.7162 11.1719 27.7162 11.7188C27.7162 12.5 27.0621 13.2031 26.1628 13.2031C25.2634 13.2031 24.6094 12.5 24.6094 11.7188C24.6094 11.1719 24.8547 10.7812 25.3452 10.4688V10.9375C25.3452 11.4062 25.6722 11.7188 26.1628 11.7188ZM11.4462 11.7188C11.9368 11.7188 12.2638 11.4062 12.2638 10.9375V10.4688C12.6726 10.7031 12.9996 11.1719 12.9996 11.7188C12.9996 12.5 12.3456 13.2031 11.4462 13.2031C10.6286 13.2031 9.89281 12.5781 9.89281 11.7188C9.89281 11.1719 10.1381 10.7812 10.6286 10.4688V10.9375C10.6286 11.4062 11.0374 11.7188 11.4462 11.7188ZM50.6904 45.1562C50.6904 46.4062 49.6275 47.4219 48.3194 47.4219H4.00618C2.69804 47.4219 1.63517 46.4062 1.63517 45.1562V17.9688H50.6904V45.1562ZM50.6904 16.4063H1.63517V8.4375C1.63517 7.26562 2.69804 6.25 4.00618 6.25H10.6286V8.82812C9.32049 9.14062 8.25763 10.3125 8.25763 11.7188C8.25763 13.3594 9.64753 14.7656 11.4462 14.7656C13.1632 14.7656 14.6348 13.4375 14.6348 11.7188C14.6348 10.3125 13.6537 9.14062 12.2638 8.82812V6.25H25.3452V8.82812C24.0371 9.14062 22.9742 10.3125 22.9742 11.7188C22.9742 13.3594 24.3641 14.7656 26.1628 14.7656C27.9615 14.7656 29.3514 13.4375 29.3514 11.7188C29.3514 10.3125 28.3703 9.14062 26.9804 8.82812V6.25H40.0618V8.82812C38.7536 9.14062 37.6908 10.3125 37.6908 11.7188C37.6908 13.3594 39.0807 14.7656 40.8794 14.7656C42.5963 14.7656 44.068 13.4375 44.068 11.7188C44.068 10.3125 43.0868 9.14062 41.6969 8.82812V6.25H48.4012C49.7093 6.25 50.7722 7.26562 50.7722 8.51562V16.4063H50.6904Z" fill="black"/>
<path d="M13.4901 37.4219L12.5908 42.5C12.509 43.125 13.0813 43.5938 13.6536 43.3594L16.597 42.2656C16.7605 42.1875 16.924 42.0313 17.0875 41.875L19.0497 37.8906L25.8357 35.9375L25.3451 44.1406C25.3451 44.6875 25.9175 45.1563 26.4898 44.9219L29.3513 43.9063C29.5966 43.8281 29.7601 43.6719 29.8419 43.4375L33.6028 33.5938C37.2819 32.5781 39.8164 31.5625 41.6151 27.8906C41.7786 27.5 41.6151 27.0313 41.2063 26.875C37.609 25.3125 34.7474 26.0156 31.5588 27.5781L21.5842 22.4219C21.339 22.3438 21.0937 22.2656 20.9302 22.3438L17.9869 23.3594C17.4146 23.5938 17.251 24.2188 17.6598 24.6094L23.9552 30.625L17.4145 33.5156L12.9996 31.4844C12.8361 31.4063 12.5908 31.4063 12.3455 31.4844L9.4022 32.5C8.82989 32.7344 8.66637 33.4375 9.15692 33.8281L13.4901 37.4219ZM12.5908 33.0469L17.0058 35.0781C17.251 35.1563 17.4963 35.1563 17.7416 35.0781L25.7539 31.5625C26.2445 31.3281 26.408 30.7031 25.9992 30.3125L19.7856 24.375L21.1755 23.9063L31.0683 29.1406C31.2318 29.2188 31.4771 29.2969 31.6406 29.2188C32.6217 28.9844 35.565 26.7188 39.6529 28.0469C38.0177 30.7813 35.7285 31.4063 32.7034 32.2656C32.4582 32.3438 32.2946 32.5 32.1311 32.7344L28.3702 42.5781L27.0621 42.9688L27.5526 34.9219C27.5526 34.375 27.0621 33.9844 26.4898 34.1406L18.2321 36.5625C17.9869 36.6406 17.8233 36.7969 17.7416 36.9531L15.7794 41.0156L14.4712 41.4844L15.2071 37.2656C15.2071 37.0313 15.1253 36.7188 14.9618 36.5625L11.3644 33.5156L12.5908 33.0469Z" fill="black"/>
</g>
<defs>
<clipPath id="clip0_30_29">
<rect width="52.3256" height="50" fill="white"/>
</clipPath>
</defs>
</svg>
