<svg width="30" height="30" viewBox="0 0 30 30" fill="none" xmlns="http://www.w3.org/2000/svg">
<path d="M18.8019 17.7919C19.9306 16.4256 20.6435 14.6731 20.6435 12.7424C20.6435 8.40575 17.1088 4.87109 12.7722 4.87109C8.43553 4.87109 4.90088 8.40575 4.90088 12.7424C4.90088 17.079 8.43553 20.6137 12.7722 20.6137C14.6732 20.6137 16.4553 19.9305 17.8217 18.7721L23.9405 24.8909C24.089 25.0394 24.2672 25.0988 24.4454 25.0988C24.6237 25.0988 24.8019 25.0394 24.9504 24.8909C25.2177 24.6236 25.2177 24.1483 24.9504 23.881L18.8019 17.7919ZM12.7425 19.1879C9.17811 19.1879 6.29692 16.3067 6.29692 12.7424C6.29692 9.17803 9.17811 6.29684 12.7425 6.29684C16.3068 6.29684 19.188 9.17803 19.188 12.7424C19.188 16.3067 16.3068 19.1879 12.7425 19.1879Z" fill="white"/>
</svg>
