<svg xmlns="http://www.w3.org/2000/svg" xml:space="preserve" id="sms" x="0" y="0" version="1.1" viewBox="0 0 48 48">
  <path d="M17.4 8.3c0-.6-.4-1-1-1H9.3c-.6 0-1 .4-1 1s.4 1 1 1h7.1c.5 0 1-.4 1-1zM12.8 38.6c-1 0-1.7.8-1.7 1.7s.8 1.7 1.7 1.7 1.7-.8 1.7-1.7-.7-1.7-1.7-1.7zm-.2 1.8c0-.1.1-.3.3-.3s.3.1.3.3c-.1.3-.6.3-.6 0z"></path>
  <path d="M47 11.1H25.7V7c0-2.7-2.2-5-5-5H5C2.3 2 0 4.2 0 7v33.9c0 2.7 2.2 5 5 5h15.7c2.7 0 5-2.2 5-5v-7.1H47c.6 0 1-.4 1-1V12.1c0-.6-.5-1-1-1zm-26.5 2h23.4l-11.7 8.2-11.7-8.2zm.2 30.8H5c-1.6 0-3-1.3-3-3v-3.7h21.7v3.7c0 1.7-1.4 3-3 3zm3-8.6H2V7c0-1.6 1.3-3 3-3h15.7c1.6 0 3 1.3 3 3v4h-6.3c-.5 0-1 .4-1 1v20.8c0 .6.4 1 1 1h6.3v1.5zm1-3.4h-6.3V14l13.3 9.3c.2.1.4.2.6.2s.4-.1.6-.2L46 14v17.9H24.7z"></path>
  <path d="M38.9 26.5H25.5c-.6 0-1 .4-1 1s.4 1 1 1h13.4c.6 0 1-.4 1-1s-.5-1-1-1z"></path>
</svg>
