<svg width="32" height="32" viewBox="0 0 32 32" fill="none" xmlns="http://www.w3.org/2000/svg">
<path d="M30 15C29.7348 15 29.4804 15.1054 29.2929 15.2929C29.1054 15.4804 29 15.7348 29 16V20C29 20.2652 29.1054 20.5196 29.2929 20.7071C29.4804 20.8946 29.7348 21 30 21C30.2652 21 30.5196 20.8946 30.7071 20.7071C30.8946 20.5196 31 20.2652 31 20V16C31 15.7348 30.8946 15.4804 30.7071 15.2929C30.5196 15.1054 30.2652 15 30 15Z" fill="black"/>
<path d="M28.094 4.5H27V2.5C27 2.23478 26.8946 1.98043 26.7071 1.79289C26.5196 1.60536 26.2652 1.5 26 1.5C25.7348 1.5 25.4804 1.60536 25.2929 1.79289C25.1054 1.98043 25 2.23478 25 2.5V4.5H17V2.5C17 2.23478 16.8946 1.98043 16.7071 1.79289C16.5196 1.60536 16.2652 1.5 16 1.5C15.7348 1.5 15.4804 1.60536 15.2929 1.79289C15.1054 1.98043 15 2.23478 15 2.5V4.5H7V2.5C7 2.23478 6.89464 1.98043 6.70711 1.79289C6.51957 1.60536 6.26522 1.5 6 1.5C5.73478 1.5 5.48043 1.60536 5.29289 1.79289C5.10536 1.98043 5 2.23478 5 2.5V4.5H3.906C3.13561 4.50106 2.39707 4.80756 1.85232 5.35232C1.30757 5.89707 1.00106 6.63561 1 7.406V27.594C1.00106 28.3644 1.30757 29.1029 1.85232 29.6477C2.39707 30.1924 3.13561 30.4989 3.906 30.5H28.094C28.8644 30.4989 29.6029 30.1924 30.1477 29.6477C30.6924 29.1029 30.9989 28.3644 31 27.594V24C31 23.7348 30.8946 23.4804 30.7071 23.2929C30.5196 23.1054 30.2652 23 30 23C29.7348 23 29.4804 23.1054 29.2929 23.2929C29.1054 23.4804 29 23.7348 29 24V27.594C28.9995 27.8341 28.9038 28.0643 28.7341 28.2341C28.5643 28.4038 28.3341 28.4995 28.094 28.5H3.906C3.66588 28.4995 3.43574 28.4038 3.26594 28.2341C3.09615 28.0643 3.00053 27.8341 3 27.594V7.406C3.00053 7.16588 3.09615 6.93574 3.26594 6.76594C3.43574 6.59615 3.66588 6.50053 3.906 6.5H5V8.5C5 8.76522 5.10536 9.01957 5.29289 9.20711C5.48043 9.39464 5.73478 9.5 6 9.5C6.26522 9.5 6.51957 9.39464 6.70711 9.20711C6.89464 9.01957 7 8.76522 7 8.5V6.5H15V8.5C15 8.76522 15.1054 9.01957 15.2929 9.20711C15.4804 9.39464 15.7348 9.5 16 9.5C16.2652 9.5 16.5196 9.39464 16.7071 9.20711C16.8946 9.01957 17 8.76522 17 8.5V6.5H25V8.5C25 8.76522 25.1054 9.01957 25.2929 9.20711C25.4804 9.39464 25.7348 9.5 26 9.5C26.2652 9.5 26.5196 9.39464 26.7071 9.20711C26.8946 9.01957 27 8.76522 27 8.5V6.5H28.094C28.3341 6.50053 28.5643 6.59615 28.7341 6.76594C28.9038 6.93574 28.9995 7.16588 29 7.406V13C29 13.2652 29.1054 13.5196 29.2929 13.7071C29.4804 13.8946 29.7348 14 30 14C30.2652 14 30.5196 13.8946 30.7071 13.7071C30.8946 13.5196 31 13.2652 31 13V7.406C30.9989 6.63561 30.6924 5.89707 30.1477 5.35232C29.6029 4.80756 28.8644 4.50106 28.094 4.5Z" fill="black"/>
<path d="M22.293 12.793L14 21.086L9.70704 16.793C9.51844 16.6109 9.26584 16.5101 9.00364 16.5124C8.74144 16.5146 8.49063 16.6198 8.30522 16.8052C8.11981 16.9906 8.01465 17.2414 8.01237 17.5036C8.01009 17.7658 8.11088 18.0184 8.29304 18.207L13.293 23.207C13.4806 23.3945 13.7349 23.4998 14 23.4998C14.2652 23.4998 14.5195 23.3945 14.707 23.207L23.707 14.207C23.8892 14.0184 23.99 13.7658 23.9877 13.5036C23.9854 13.2414 23.8803 12.9906 23.6949 12.8052C23.5095 12.6198 23.2586 12.5146 22.9964 12.5124C22.7342 12.5101 22.4816 12.6109 22.293 12.793Z" fill="black"/>
</svg>
