<svg width="47" height="50" viewBox="0 0 47 50" fill="none" xmlns="http://www.w3.org/2000/svg">
<path d="M19.5579 8.33333H27.3811C27.9211 8.33333 28.359 7.86692 28.359 7.29167C28.359 6.71641 27.9211 6.25 27.3811 6.25H19.5579C19.0179 6.25 18.58 6.71641 18.58 7.29167C18.58 7.86692 19.0179 8.33333 19.5579 8.33333ZM35.1914 18.153L37.8513 15.3197C38.2174 14.9161 38.2174 14.2761 37.8513 13.8724C37.4761 13.4586 36.857 13.4472 36.4686 13.8468L33.8087 16.6801C31.0505 14.0865 27.438 12.5 23.4695 12.5C19.501 12.5 15.8885 14.0865 13.1301 16.6803L10.4703 13.847C10.0914 13.457 9.49062 13.457 9.11162 13.847C8.72318 14.2466 8.71244 14.9061 9.08762 15.3198L11.7475 18.1531C9.31264 21.0912 7.82324 24.9393 7.82324 29.1667C7.82324 38.3714 14.8283 45.8333 23.4695 45.8333C32.1066 45.8228 39.1058 38.3671 39.1158 29.1667C39.1158 24.9393 37.6264 21.0912 35.1914 18.153ZM23.4695 43.75C15.9085 43.75 9.77902 37.2208 9.77902 29.1667C9.77902 25.1546 11.3014 21.5221 13.7627 18.8854C13.7725 18.8758 13.786 18.8722 13.7954 18.8622C13.8051 18.852 13.8079 18.838 13.817 18.8274C16.2923 16.2051 19.7026 14.5833 23.4695 14.5833C27.2441 14.5882 30.6609 16.2184 33.137 18.8519C33.1424 18.8576 33.1473 18.8629 33.1528 18.8686C35.625 21.5062 37.1554 25.1458 37.16 29.1667C37.16 37.2208 31.0305 43.75 23.4695 43.75ZM24.4474 26.2329V21.875C24.4474 21.2997 24.0095 20.8333 23.4695 20.8333C22.9295 20.8333 22.4916 21.2997 22.4916 21.875V26.2329C21.3548 26.6633 20.5358 27.808 20.5358 29.1667C20.5358 30.8926 21.8493 32.2917 23.4695 32.2917C25.0897 32.2917 26.4032 30.8926 26.4032 29.1667C26.4032 27.808 25.5842 26.6633 24.4474 26.2329Z" fill="black"/>
</svg>
